<?xml version="1.0" standalone="no"?>
<!DOCTYPE svg PUBLIC "-//W3C//DTD SVG 20010904//EN"
 "http://www.w3.org/TR/2001/REC-SVG-20010904/DTD/svg10.dtd">
<svg version="1.0" xmlns="http://www.w3.org/2000/svg"
 width="921.000000pt" height="263.000000pt" viewBox="0 0 921.000000 263.000000"
 preserveAspectRatio="xMidYMid meet">

<g transform="translate(0.000000,263.000000) scale(0.100000,-0.100000)"
fill="#000000" stroke="none">
<path d="M1091 2180 c-281 -39 -534 -221 -661 -475 -70 -140 -92 -230 -94
-385 -2 -251 83 -461 258 -635 424 -422 1142 -300 1404 238 66 134 86 228 86
392 -1 122 -4 151 -28 228 -76 253 -232 440 -459 552 -50 25 -127 54 -169 65
-93 23 -248 32 -337 20z m275 -576 c112 -30 200 -152 206 -284 l3 -65 -233 -3
-234 -2 7 -33 c18 -80 53 -102 157 -98 14 1 40 12 57 26 28 24 35 26 135 23
l106 -3 -21 -43 c-28 -56 -70 -97 -133 -129 -41 -22 -69 -28 -142 -31 -175 -8
-285 48 -357 182 -19 35 -22 57 -22 146 0 95 3 110 27 157 82 154 245 212 444
157z"/>
<path d="M1161 1453 c-16 -16 -32 -38 -36 -50 -6 -23 -6 -23 119 -23 l125 0
-11 30 c-15 45 -57 70 -117 70 -42 0 -56 -5 -80 -27z"/>
<path d="M5542 1488 l3 -503 108 -3 107 -3 0 506 0 505 -110 0 -110 0 2 -502z"/>
<path d="M3503 1904 c-58 -21 -129 -87 -160 -148 -34 -68 -42 -164 -18 -235
25 -77 74 -113 212 -157 129 -42 163 -66 163 -118 0 -26 -7 -40 -32 -61 -29
-24 -38 -27 -93 -23 -62 4 -141 36 -172 70 -9 10 -20 18 -24 18 -8 0 -99 -173
-99 -188 0 -15 139 -78 198 -91 173 -36 348 17 424 130 43 64 60 181 38 258
-26 90 -94 142 -259 196 -98 32 -123 53 -119 97 7 69 100 91 194 47 27 -13 53
-23 57 -23 14 -1 98 167 88 177 -5 5 -40 20 -77 34 -88 33 -255 42 -321 17z"/>
<path d="M6800 1700 l0 -90 -35 0 -35 0 0 -90 0 -90 35 0 35 0 0 -225 0 -225
110 0 110 0 0 225 0 225 65 0 66 0 -3 88 -3 87 -62 3 -63 3 0 89 0 90 -110 0
-110 0 0 -90z"/>
<path d="M7250 1700 l0 -90 -35 0 -35 0 0 -90 0 -90 35 0 35 0 0 -225 0 -225
110 0 110 0 0 225 0 225 65 0 66 0 -3 88 -3 87 -62 3 -63 3 0 89 0 90 -110 0
-110 0 0 -90z"/>
<path d="M4375 1624 c-11 -2 -44 -9 -72 -15 -79 -16 -160 -79 -203 -160 -33
-60 -35 -70 -34 -154 0 -73 5 -100 23 -139 34 -72 105 -139 177 -166 69 -26
189 -32 247 -12 l37 14 0 93 0 94 -42 -19 c-54 -25 -82 -25 -135 0 -76 34
-105 125 -67 206 33 69 138 99 212 60 l32 -17 0 94 0 94 -37 11 c-49 14 -113
21 -138 16z"/>
<path d="M4913 1619 c-114 -21 -211 -114 -243 -231 -18 -70 -9 -172 22 -238
47 -101 128 -162 238 -182 70 -12 151 7 198 47 38 32 42 31 42 -5 l0 -31 108
3 107 3 0 310 0 310 -107 3 -108 3 0 -32 c0 -31 0 -31 -22 -15 -67 49 -157 70
-235 55z m195 -205 c89 -57 78 -197 -18 -247 -88 -45 -200 25 -200 126 0 114
123 182 218 121z"/>
<path d="M6149 1619 c-84 -13 -154 -59 -203 -134 -43 -66 -59 -129 -54 -212
10 -176 142 -306 312 -307 77 0 119 16 169 62 l27 26 0 -37 0 -38 108 3 107 3
0 310 0 310 -107 3 -108 3 0 -32 c0 -31 0 -31 -22 -15 -66 49 -147 68 -229 55z
m188 -204 c90 -59 80 -198 -17 -248 -88 -45 -200 25 -200 126 0 113 124 183
217 122z"/>
<path d="M2450 1300 l0 -70 145 0 145 0 0 70 0 70 -145 0 -145 0 0 -70z"/>
</g>
</svg>
